<?xml version="1.0" encoding="utf-8"?>
<!-- Generator: Adobe Illustrator 16.0.0, SVG Export Plug-In . SVG Version: 6.00 Build 0)  -->
<!DOCTYPE svg PUBLIC "-//W3C//DTD SVG 1.0//EN" "http://www.w3.org/TR/2001/REC-SVG-20010904/DTD/svg10.dtd">
<svg version="1.0" id="Layer_1" xmlns="http://www.w3.org/2000/svg" xmlns:xlink="http://www.w3.org/1999/xlink" x="0px" y="0px"
	 width="800px" height="800px" viewBox="0 0 800 800" enable-background="new 0 0 800 800" xml:space="preserve">
<g>
	<polygon fill="#E44D26" points="182.041,715.688 133.543,171.722 666.457,171.722 617.905,715.603 399.673,776.105 	"/>
	<polygon fill="#F16529" points="400,729.86 576.341,680.97 617.831,216.199 400,216.199 	"/>
	<polygon fill="#EBEBEB" points="400,417.947 311.719,417.947 305.621,349.631 400,349.631 400,282.915 399.77,282.915 
		232.709,282.915 234.307,300.814 250.704,484.663 400,484.663 	"/>
	<polygon fill="#EBEBEB" points="400,591.217 399.707,591.295 325.406,571.23 320.656,518.022 284.552,518.022 253.684,518.022 
		263.03,622.775 399.693,660.714 400,660.626 	"/>
	<path d="M183.125,23.895h33.904v33.496h31.014V23.895h33.905v101.437h-33.904V91.364H217.03v33.967h-33.902V23.895H183.125z"/>
	<path d="M326.532,57.533h-29.846V23.895h93.615v33.639h-29.863v67.798h-33.904V57.533H326.532z"/>
	<path d="M405.159,23.895h35.351l21.749,35.643l21.723-35.643h35.367v101.437h-33.766V75.054l-23.324,36.066h-0.587l-23.34-36.066
		v50.277h-33.173V23.895z"/>
	<path d="M536.223,23.895h33.912v67.908h47.679v33.528h-81.591V23.895z"/>
	<polygon fill="#FFFFFF" points="399.77,417.947 399.77,484.663 481.922,484.663 474.176,571.188 399.77,591.272 399.77,660.682 
		536.538,622.775 537.542,611.505 553.221,435.864 554.849,417.947 536.87,417.947 	"/>
	<polygon fill="#FFFFFF" points="399.77,282.915 399.77,324.351 399.77,349.468 399.77,349.631 560.704,349.631 560.704,349.631 
		560.917,349.631 562.255,334.636 565.296,300.814 566.893,282.915 	"/>
</g>
</svg>
